<svg width="435" height="135" viewBox="0 0 435 135" fill="none" xmlns="http://www.w3.org/2000/svg">
<path d="M20.3864 93H2.25L25.8068 23.1818H48.2727L71.8295 93H53.6932L37.2955 40.7727H36.75L20.3864 93ZM17.9659 65.5227H55.875V78.3409H17.9659V65.5227ZM94.3016 23.1818V93H77.4266V23.1818H94.3016ZM138.419 93L118.101 23.1818H136.749L147.283 68.9318H147.862L159.896 23.1818H175.101L187.135 69.0341H187.714L198.283 23.1818H216.896L196.612 93H180.351L167.771 50.6591H167.226L154.646 93H138.419ZM230.897 93.8864C227.556 93.8864 224.59 93.3295 221.999 92.2159C219.431 91.0795 217.397 89.375 215.897 87.1023C214.419 84.8068 213.681 81.9318 213.681 78.4773C213.681 75.5682 214.192 73.1136 215.215 71.1136C216.238 69.1136 217.647 67.4886 219.442 66.2386C221.238 64.9886 223.306 64.0455 225.647 63.4091C227.988 62.75 230.488 62.3068 233.147 62.0795C236.124 61.8068 238.522 61.5227 240.34 61.2273C242.158 60.9091 243.476 60.4659 244.294 59.8977C245.135 59.3068 245.556 58.4773 245.556 57.4091V57.2386C245.556 55.4886 244.954 54.1364 243.749 53.1818C242.544 52.2273 240.919 51.75 238.874 51.75C236.669 51.75 234.897 52.2273 233.556 53.1818C232.215 54.1364 231.363 55.4545 230.999 57.1364L215.624 56.5909C216.079 53.4091 217.249 50.5682 219.135 48.0682C221.044 45.5455 223.658 43.5682 226.976 42.1364C230.317 40.6818 234.329 39.9545 239.01 39.9545C242.351 39.9545 245.431 40.3523 248.249 41.1477C251.067 41.9205 253.522 43.0568 255.613 44.5568C257.704 46.0341 259.317 47.8523 260.454 50.0114C261.613 52.1705 262.192 54.6364 262.192 57.4091V93H246.51V85.7045H246.101C245.169 87.4773 243.976 88.9773 242.522 90.2045C241.09 91.4318 239.397 92.3523 237.442 92.9659C235.51 93.5795 233.329 93.8864 230.897 93.8864ZM236.044 82.9773C237.84 82.9773 239.454 82.6136 240.885 81.8864C242.34 81.1591 243.499 80.1591 244.363 78.8864C245.226 77.5909 245.658 76.0909 245.658 74.3864V69.4091C245.181 69.6591 244.601 69.8864 243.919 70.0909C243.26 70.2955 242.533 70.4886 241.738 70.6705C240.942 70.8523 240.124 71.0114 239.283 71.1477C238.442 71.2841 237.635 71.4091 236.863 71.5227C235.294 71.7727 233.954 72.1591 232.84 72.6818C231.749 73.2045 230.908 73.8864 230.317 74.7273C229.749 75.5455 229.465 76.5227 229.465 77.6591C229.465 79.3864 230.079 80.7045 231.306 81.6136C232.556 82.5227 234.135 82.9773 236.044 82.9773ZM300.022 40.6364V52.9091H266.988V40.6364H300.022ZM273.909 28.0909H290.579V76.5341C290.579 77.5568 290.738 78.3864 291.056 79.0227C291.397 79.6364 291.886 80.0795 292.522 80.3523C293.159 80.6023 293.92 80.7273 294.806 80.7273C295.443 80.7273 296.113 80.6705 296.818 80.5568C297.545 80.4205 298.09 80.3068 298.454 80.2159L300.977 92.25C300.181 92.4773 299.056 92.7614 297.602 93.1023C296.17 93.4432 294.454 93.6591 292.454 93.75C288.545 93.9318 285.193 93.4773 282.397 92.3864C279.624 91.2727 277.499 89.5455 276.022 87.2045C274.568 84.8636 273.863 81.9205 273.909 78.375V28.0909ZM330.489 93.9886C324.966 93.9886 320.227 92.8523 316.273 90.5795C312.341 88.3068 309.318 85.1477 307.204 81.1023C305.091 77.0341 304.034 72.3295 304.034 66.9886C304.034 61.625 305.091 56.9205 307.204 52.875C309.341 48.8068 312.375 45.6364 316.307 43.3636C320.261 41.0909 324.977 39.9545 330.454 39.9545C335.295 39.9545 339.511 40.8295 343.102 42.5795C346.716 44.3295 349.534 46.8068 351.557 50.0114C353.602 53.1932 354.682 56.9318 354.795 61.2273H339.216C338.898 58.5455 337.989 56.4432 336.489 54.9205C335.011 53.3977 333.079 52.6364 330.693 52.6364C328.761 52.6364 327.068 53.1818 325.614 54.2727C324.159 55.3409 323.023 56.9318 322.204 59.0455C321.409 61.1364 321.011 63.7273 321.011 66.8182C321.011 69.9091 321.409 72.5227 322.204 74.6591C323.023 76.7727 324.159 78.375 325.614 79.4659C327.068 80.5341 328.761 81.0682 330.693 81.0682C332.239 81.0682 333.602 80.7386 334.784 80.0795C335.989 79.4205 336.977 78.4545 337.75 77.1818C338.523 75.8864 339.011 74.3182 339.216 72.4773H354.795C354.636 76.7955 353.557 80.5682 351.557 83.7955C349.579 87.0227 346.795 89.5341 343.204 91.3295C339.636 93.1023 335.398 93.9886 330.489 93.9886ZM378.077 63.1364V93H361.407V23.1818H377.532V50.25H378.111C379.293 47.0227 381.225 44.5 383.907 42.6818C386.611 40.8636 389.918 39.9545 393.827 39.9545C397.509 39.9545 400.713 40.7727 403.441 42.4091C406.168 44.0227 408.282 46.3068 409.782 49.2614C411.304 52.2159 412.054 55.6705 412.032 59.625V93H395.361V62.8977C395.384 59.9886 394.657 57.7159 393.179 56.0795C391.702 54.4432 389.622 53.625 386.941 53.625C385.191 53.625 383.645 54.0114 382.304 54.7841C380.986 55.5341 379.952 56.6136 379.202 58.0227C378.475 59.4318 378.1 61.1364 378.077 63.1364Z" fill="white"/>
<path d="M16.984 112.224C17.1747 112.473 17.3727 112.789 17.578 113.17C17.798 113.537 18.0107 113.903 18.216 114.27C18.4213 114.637 18.59 114.959 18.722 115.238L16.962 115.986C16.7273 115.531 16.4487 115.018 16.126 114.446C15.818 113.859 15.5173 113.353 15.224 112.928L16.984 112.224ZM19.58 111.212C19.7707 111.491 19.976 111.821 20.196 112.202C20.416 112.569 20.6287 112.935 20.834 113.302C21.054 113.654 21.23 113.955 21.362 114.204L19.602 114.974C19.382 114.505 19.1033 113.984 18.766 113.412C18.4433 112.84 18.1353 112.349 17.842 111.938L19.58 111.212ZM9.658 113.28C9.54067 113.559 9.416 113.867 9.284 114.204C9.152 114.541 9.042 114.835 8.954 115.084C8.822 115.436 8.66067 115.847 8.47 116.316C8.294 116.771 8.10333 117.225 7.898 117.68C7.70733 118.135 7.50933 118.553 7.304 118.934C7.01067 119.506 6.65867 120.107 6.248 120.738C5.83733 121.369 5.39733 121.977 4.928 122.564C4.45867 123.136 3.97467 123.642 3.476 124.082L0.726 122.41C1.122 122.117 1.496 121.779 1.848 121.398C2.21467 121.017 2.55933 120.621 2.882 120.21C3.21933 119.799 3.52733 119.396 3.806 119C4.08467 118.589 4.32667 118.215 4.532 117.878C4.82533 117.365 5.07467 116.837 5.28 116.294C5.5 115.751 5.676 115.275 5.808 114.864C5.94 114.497 6.04267 114.116 6.116 113.72C6.204 113.324 6.25533 112.957 6.27 112.62L9.658 113.28ZM6.204 116.668C6.468 116.668 6.85667 116.668 7.37 116.668C7.898 116.668 8.492 116.668 9.152 116.668C9.812 116.668 10.5013 116.668 11.22 116.668C11.9533 116.668 12.672 116.668 13.376 116.668C14.0947 116.668 14.762 116.668 15.378 116.668C15.994 116.668 16.5147 116.668 16.94 116.668C17.3653 116.668 17.6587 116.668 17.82 116.668C18.1133 116.668 18.48 116.661 18.92 116.646C19.36 116.617 19.756 116.573 20.108 116.514V119.528C19.6973 119.484 19.272 119.462 18.832 119.462C18.4067 119.447 18.0693 119.44 17.82 119.44C17.6293 119.44 17.2553 119.44 16.698 119.44C16.1553 119.44 15.4953 119.44 14.718 119.44C13.9407 119.44 13.112 119.44 12.232 119.44C11.3667 119.44 10.516 119.44 9.68 119.44C8.85867 119.44 8.118 119.44 7.458 119.44C6.798 119.44 6.29933 119.44 5.962 119.44L6.204 116.668ZM14.784 118.274C14.7547 119.887 14.586 121.376 14.278 122.74C13.97 124.089 13.53 125.321 12.958 126.436C12.4007 127.536 11.7113 128.526 10.89 129.406C10.0687 130.286 9.13 131.056 8.074 131.716L5.104 129.736C5.5 129.56 5.88133 129.369 6.248 129.164C6.61467 128.959 6.93 128.746 7.194 128.526C7.82467 128.042 8.404 127.485 8.932 126.854C9.47467 126.223 9.95133 125.497 10.362 124.676C10.7727 123.84 11.0953 122.894 11.33 121.838C11.5793 120.782 11.7187 119.587 11.748 118.252L14.784 118.274ZM23.584 119.814C23.848 119.829 24.1853 119.851 24.596 119.88C25.0067 119.895 25.432 119.909 25.872 119.924C26.3267 119.939 26.7447 119.946 27.126 119.946C27.4927 119.946 27.9473 119.946 28.49 119.946C29.0327 119.946 29.6193 119.946 30.25 119.946C30.8953 119.946 31.5553 119.946 32.23 119.946C32.9193 119.946 33.6013 119.946 34.276 119.946C34.9507 119.946 35.5887 119.946 36.19 119.946C36.7913 119.946 37.3267 119.946 37.796 119.946C38.28 119.946 38.6613 119.946 38.94 119.946C39.4533 119.946 39.9373 119.931 40.392 119.902C40.8467 119.858 41.2207 119.829 41.514 119.814V123.268C41.2647 123.253 40.8907 123.231 40.392 123.202C39.8933 123.173 39.4093 123.158 38.94 123.158C38.6613 123.158 38.28 123.158 37.796 123.158C37.312 123.158 36.7693 123.158 36.168 123.158C35.5667 123.158 34.9287 123.158 34.254 123.158C33.594 123.158 32.9193 123.158 32.23 123.158C31.5407 123.158 30.8733 123.158 30.228 123.158C29.5973 123.158 29.0107 123.158 28.468 123.158C27.94 123.158 27.4927 123.158 27.126 123.158C26.4953 123.158 25.85 123.173 25.19 123.202C24.53 123.217 23.9947 123.239 23.584 123.268V119.814ZM54.664 113.412C54.5173 113.735 54.3633 114.101 54.202 114.512C54.0407 114.908 53.8793 115.355 53.718 115.854C53.586 116.265 53.4173 116.793 53.212 117.438C53.0067 118.069 52.7793 118.765 52.53 119.528C52.2807 120.276 52.0167 121.053 51.738 121.86C51.474 122.652 51.2173 123.422 50.968 124.17C50.7187 124.918 50.484 125.6 50.264 126.216C50.044 126.817 49.8533 127.309 49.692 127.69L46.436 127.8C46.6413 127.331 46.8687 126.759 47.118 126.084C47.3673 125.409 47.6313 124.676 47.91 123.884C48.1887 123.077 48.46 122.256 48.724 121.42C49.0027 120.584 49.2593 119.777 49.494 119C49.7433 118.223 49.9633 117.504 50.154 116.844C50.3593 116.184 50.5207 115.649 50.638 115.238C50.7847 114.666 50.8947 114.197 50.968 113.83C51.056 113.449 51.122 113.067 51.166 112.686L54.664 113.412ZM58.602 120.518C58.998 121.105 59.4233 121.794 59.878 122.586C60.3327 123.378 60.78 124.207 61.22 125.072C61.6747 125.923 62.0927 126.744 62.474 127.536C62.8553 128.328 63.1707 129.039 63.42 129.67L60.45 130.99C60.2007 130.315 59.8927 129.553 59.526 128.702C59.174 127.851 58.7853 126.986 58.36 126.106C57.9493 125.226 57.524 124.397 57.084 123.62C56.6587 122.828 56.248 122.168 55.852 121.64L58.602 120.518ZM46.238 126.832C46.7367 126.803 47.338 126.766 48.042 126.722C48.7607 126.663 49.5307 126.597 50.352 126.524C51.1733 126.436 52.0093 126.348 52.86 126.26C53.7253 126.172 54.5687 126.084 55.39 125.996C56.226 125.893 57.0033 125.798 57.722 125.71C58.4407 125.622 59.0493 125.541 59.548 125.468L60.208 128.284C59.6653 128.357 59.0127 128.438 58.25 128.526C57.502 128.614 56.6953 128.709 55.83 128.812C54.9647 128.9 54.0847 128.995 53.19 129.098C52.2953 129.201 51.4227 129.296 50.572 129.384C49.7213 129.472 48.9367 129.553 48.218 129.626C47.4993 129.685 46.8907 129.743 46.392 129.802C46.1133 129.831 45.7833 129.875 45.402 129.934C45.0353 129.978 44.676 130.022 44.324 130.066L43.818 126.854C44.1847 126.854 44.588 126.854 45.028 126.854C45.4827 126.854 45.886 126.847 46.238 126.832ZM65.246 124.764H84.87V126.942H65.246V124.764ZM65.312 114.908H84.804V117.064H65.312V114.908ZM66.214 118.846H83.946V120.914H66.214V118.846ZM67.292 121.882H82.934V123.796H67.292V121.882ZM73.672 119.88H76.29V131.98H73.672V119.88ZM71.758 111.278H74.222V115.942H71.758V111.278ZM75.85 111.278H78.336V115.788H75.85V111.278ZM73.188 125.732L75.278 126.678C74.5887 127.441 73.7527 128.152 72.77 128.812C71.802 129.457 70.7607 130.022 69.646 130.506C68.5313 131.005 67.4093 131.408 66.28 131.716C66.1627 131.496 66.0013 131.247 65.796 130.968C65.6053 130.704 65.4 130.44 65.18 130.176C64.9747 129.912 64.7767 129.692 64.586 129.516C65.686 129.281 66.7787 128.981 67.864 128.614C68.964 128.247 69.976 127.815 70.9 127.316C71.824 126.817 72.5867 126.289 73.188 125.732ZM76.818 125.666C77.2727 126.106 77.8153 126.524 78.446 126.92C79.0767 127.301 79.766 127.653 80.514 127.976C81.2767 128.284 82.076 128.555 82.912 128.79C83.7627 129.025 84.6207 129.208 85.486 129.34C85.2807 129.545 85.0607 129.78 84.826 130.044C84.606 130.323 84.3933 130.609 84.188 130.902C83.9973 131.21 83.836 131.489 83.704 131.738C82.824 131.518 81.9587 131.232 81.108 130.88C80.272 130.543 79.4727 130.154 78.71 129.714C77.9473 129.274 77.2287 128.783 76.554 128.24C75.8793 127.697 75.2853 127.118 74.772 126.502L76.818 125.666ZM80.91 111.476L83.66 112.136C83.3227 112.737 82.978 113.324 82.626 113.896C82.274 114.453 81.9513 114.93 81.658 115.326L79.502 114.666C79.678 114.373 79.854 114.043 80.03 113.676C80.206 113.295 80.3673 112.913 80.514 112.532C80.6753 112.136 80.8073 111.784 80.91 111.476ZM78.006 116.184L80.8 116.844C80.492 117.357 80.1987 117.856 79.92 118.34C79.6413 118.809 79.392 119.213 79.172 119.55L76.928 118.934C77.1187 118.523 77.3167 118.069 77.522 117.57C77.7273 117.057 77.8887 116.595 78.006 116.184ZM66.874 112.18L69.14 111.41C69.4627 111.865 69.7853 112.393 70.108 112.994C70.4307 113.581 70.6653 114.087 70.812 114.512L68.436 115.392C68.3187 114.952 68.106 114.431 67.798 113.83C67.49 113.229 67.182 112.679 66.874 112.18ZM69.668 117.108L72.242 116.69C72.4327 116.998 72.616 117.35 72.792 117.746C72.9827 118.127 73.122 118.465 73.21 118.758L70.526 119.22C70.4527 118.941 70.3353 118.597 70.174 118.186C70.0127 117.775 69.844 117.416 69.668 117.108ZM91.382 117.746V119.33H101.788V117.746H91.382ZM91.382 114.182V115.766H101.788V114.182H91.382ZM88.764 112.048H104.538V121.464H88.764V112.048ZM99.61 120.056C100.094 120.716 100.71 121.332 101.458 121.904C102.221 122.476 103.071 122.982 104.01 123.422C104.963 123.847 105.953 124.185 106.98 124.434C106.789 124.61 106.584 124.83 106.364 125.094C106.144 125.358 105.931 125.637 105.726 125.93C105.521 126.209 105.352 126.465 105.22 126.7C104.149 126.333 103.123 125.871 102.14 125.314C101.172 124.742 100.277 124.082 99.456 123.334C98.6493 122.571 97.96 121.75 97.388 120.87L99.61 120.056ZM93.604 120.056L95.914 120.958C95.3273 121.794 94.616 122.586 93.78 123.334C92.9586 124.082 92.0566 124.749 91.074 125.336C90.106 125.923 89.094 126.399 88.038 126.766C87.9206 126.546 87.7593 126.304 87.554 126.04C87.3486 125.776 87.136 125.512 86.916 125.248C86.696 124.984 86.4906 124.771 86.3 124.61C87.2826 124.317 88.236 123.943 89.16 123.488C90.0986 123.019 90.9493 122.491 91.712 121.904C92.4893 121.317 93.12 120.701 93.604 120.056ZM92.042 124.082H94.748V125.6C94.748 126.128 94.6893 126.693 94.572 127.294C94.4546 127.881 94.2273 128.467 93.89 129.054C93.5526 129.641 93.0466 130.198 92.372 130.726C91.712 131.254 90.8246 131.716 89.71 132.112C89.6073 131.892 89.446 131.65 89.226 131.386C89.0206 131.122 88.8006 130.858 88.566 130.594C88.3313 130.345 88.1113 130.132 87.906 129.956C88.83 129.663 89.5633 129.333 90.106 128.966C90.6633 128.599 91.074 128.218 91.338 127.822C91.6166 127.426 91.8 127.03 91.888 126.634C91.9906 126.223 92.042 125.842 92.042 125.49V124.082ZM95.232 113.148H97.894V120.386H95.232V113.148ZM98.73 124.126H101.48V131.892H98.73V124.126ZM116.99 114.622C117.665 114.71 118.42 114.776 119.256 114.82C120.107 114.849 120.965 114.864 121.83 114.864C122.71 114.849 123.553 114.82 124.36 114.776C125.167 114.717 125.863 114.659 126.45 114.6V117.438C125.775 117.497 125.035 117.548 124.228 117.592C123.421 117.621 122.593 117.636 121.742 117.636C120.891 117.636 120.055 117.621 119.234 117.592C118.427 117.548 117.679 117.497 116.99 117.438V114.622ZM118.75 124.016C118.662 124.383 118.596 124.713 118.552 125.006C118.508 125.285 118.486 125.571 118.486 125.864C118.486 126.099 118.545 126.319 118.662 126.524C118.779 126.715 118.955 126.883 119.19 127.03C119.439 127.162 119.755 127.265 120.136 127.338C120.532 127.397 121.009 127.426 121.566 127.426C122.549 127.426 123.473 127.382 124.338 127.294C125.203 127.191 126.12 127.045 127.088 126.854L127.132 129.824C126.428 129.956 125.614 130.059 124.69 130.132C123.781 130.205 122.703 130.242 121.456 130.242C119.564 130.242 118.156 129.927 117.232 129.296C116.308 128.651 115.846 127.763 115.846 126.634C115.846 126.209 115.875 125.769 115.934 125.314C116.007 124.845 116.103 124.331 116.22 123.774L118.75 124.016ZM113.602 113.148C113.543 113.295 113.477 113.5 113.404 113.764C113.331 114.028 113.257 114.285 113.184 114.534C113.125 114.783 113.081 114.974 113.052 115.106C113.008 115.414 112.935 115.817 112.832 116.316C112.744 116.8 112.649 117.35 112.546 117.966C112.458 118.567 112.37 119.183 112.282 119.814C112.194 120.445 112.121 121.053 112.062 121.64C112.018 122.227 111.996 122.74 111.996 123.18C111.996 123.385 111.996 123.62 111.996 123.884C112.011 124.148 112.04 124.39 112.084 124.61C112.187 124.361 112.297 124.111 112.414 123.862C112.531 123.613 112.649 123.363 112.766 123.114C112.883 122.85 112.986 122.601 113.074 122.366L114.438 123.444C114.233 124.045 114.02 124.691 113.8 125.38C113.595 126.069 113.404 126.722 113.228 127.338C113.067 127.939 112.942 128.438 112.854 128.834C112.825 128.995 112.795 129.179 112.766 129.384C112.751 129.589 112.744 129.751 112.744 129.868C112.744 129.985 112.744 130.125 112.744 130.286C112.759 130.462 112.773 130.623 112.788 130.77L110.236 130.946C110.016 130.183 109.818 129.171 109.642 127.91C109.466 126.634 109.378 125.248 109.378 123.752C109.378 122.931 109.415 122.095 109.488 121.244C109.561 120.393 109.649 119.579 109.752 118.802C109.855 118.01 109.95 117.291 110.038 116.646C110.141 116.001 110.229 115.465 110.302 115.04C110.331 114.732 110.368 114.387 110.412 114.006C110.471 113.61 110.507 113.236 110.522 112.884L113.602 113.148ZM147.02 117.174C146.697 117.379 146.353 117.577 145.986 117.768C145.634 117.959 145.253 118.157 144.842 118.362C144.505 118.538 144.087 118.743 143.588 118.978C143.104 119.213 142.576 119.477 142.004 119.77C141.447 120.049 140.882 120.349 140.31 120.672C139.738 120.98 139.203 121.295 138.704 121.618C137.795 122.219 137.054 122.843 136.482 123.488C135.925 124.133 135.646 124.845 135.646 125.622C135.646 126.399 136.027 127.001 136.79 127.426C137.553 127.837 138.697 128.042 140.222 128.042C140.985 128.042 141.791 128.013 142.642 127.954C143.507 127.881 144.358 127.785 145.194 127.668C146.03 127.536 146.771 127.389 147.416 127.228L147.372 130.396C146.756 130.499 146.081 130.594 145.348 130.682C144.629 130.77 143.845 130.836 142.994 130.88C142.158 130.924 141.263 130.946 140.31 130.946C139.21 130.946 138.191 130.858 137.252 130.682C136.328 130.521 135.514 130.249 134.81 129.868C134.121 129.487 133.578 128.973 133.182 128.328C132.801 127.683 132.61 126.891 132.61 125.952C132.61 125.013 132.815 124.163 133.226 123.4C133.637 122.637 134.194 121.933 134.898 121.288C135.617 120.643 136.401 120.034 137.252 119.462C137.78 119.11 138.337 118.773 138.924 118.45C139.511 118.113 140.083 117.79 140.64 117.482C141.212 117.174 141.74 116.895 142.224 116.646C142.723 116.382 143.133 116.155 143.456 115.964C143.881 115.715 144.255 115.487 144.578 115.282C144.901 115.077 145.209 114.857 145.502 114.622L147.02 117.174ZM135.954 112.466C136.321 113.434 136.702 114.365 137.098 115.26C137.509 116.155 137.912 116.991 138.308 117.768C138.719 118.545 139.093 119.242 139.43 119.858L136.944 121.332C136.548 120.657 136.137 119.902 135.712 119.066C135.287 118.23 134.861 117.35 134.436 116.426C134.011 115.487 133.6 114.541 133.204 113.588L135.954 112.466ZM152.734 120.694C153.071 120.621 153.46 120.533 153.9 120.43C154.34 120.313 154.729 120.203 155.066 120.1C155.433 119.983 155.924 119.829 156.54 119.638C157.156 119.447 157.831 119.257 158.564 119.066C159.312 118.875 160.06 118.714 160.808 118.582C161.571 118.45 162.289 118.384 162.964 118.384C164.123 118.384 165.135 118.604 166 119.044C166.88 119.469 167.562 120.085 168.046 120.892C168.53 121.699 168.772 122.659 168.772 123.774C168.772 124.771 168.552 125.681 168.112 126.502C167.687 127.323 167.034 128.042 166.154 128.658C165.274 129.274 164.174 129.773 162.854 130.154C161.549 130.55 160.023 130.799 158.278 130.902L157.112 128.196C158.373 128.167 159.532 128.057 160.588 127.866C161.659 127.675 162.583 127.404 163.36 127.052C164.152 126.685 164.761 126.223 165.186 125.666C165.626 125.109 165.846 124.463 165.846 123.73C165.846 123.173 165.714 122.689 165.45 122.278C165.201 121.853 164.841 121.523 164.372 121.288C163.903 121.053 163.345 120.936 162.7 120.936C162.187 120.936 161.615 121.002 160.984 121.134C160.353 121.266 159.701 121.435 159.026 121.64C158.366 121.845 157.713 122.065 157.068 122.3C156.423 122.535 155.821 122.762 155.264 122.982C154.707 123.202 154.245 123.393 153.878 123.554L152.734 120.694ZM171.614 114.864C172.054 114.849 172.472 114.835 172.868 114.82C173.264 114.791 173.572 114.769 173.792 114.754C174.247 114.71 174.804 114.659 175.464 114.6C176.124 114.541 176.865 114.475 177.686 114.402C178.522 114.329 179.41 114.255 180.348 114.182C181.287 114.094 182.262 114.006 183.274 113.918C184.037 113.859 184.8 113.808 185.562 113.764C186.325 113.705 187.044 113.661 187.718 113.632C188.408 113.588 189.002 113.559 189.5 113.544L189.522 116.36C189.126 116.36 188.672 116.367 188.158 116.382C187.645 116.397 187.132 116.426 186.618 116.47C186.12 116.499 185.672 116.558 185.276 116.646C184.616 116.822 184 117.123 183.428 117.548C182.871 117.959 182.38 118.45 181.954 119.022C181.529 119.594 181.199 120.21 180.964 120.87C180.744 121.515 180.634 122.168 180.634 122.828C180.634 123.547 180.759 124.185 181.008 124.742C181.258 125.285 181.602 125.754 182.042 126.15C182.497 126.531 183.025 126.854 183.626 127.118C184.228 127.367 184.873 127.558 185.562 127.69C186.266 127.822 186.992 127.91 187.74 127.954L186.706 130.968C185.782 130.909 184.88 130.763 184 130.528C183.135 130.293 182.321 129.971 181.558 129.56C180.81 129.149 180.15 128.651 179.578 128.064C179.006 127.463 178.559 126.781 178.236 126.018C177.914 125.241 177.752 124.375 177.752 123.422C177.752 122.351 177.921 121.376 178.258 120.496C178.596 119.616 179.014 118.846 179.512 118.186C180.011 117.511 180.51 116.991 181.008 116.624C180.598 116.668 180.099 116.727 179.512 116.8C178.94 116.859 178.317 116.932 177.642 117.02C176.982 117.093 176.308 117.174 175.618 117.262C174.929 117.35 174.262 117.453 173.616 117.57C172.986 117.673 172.414 117.775 171.9 117.878L171.614 114.864ZM196.127 131.518C195.687 130.961 195.195 130.396 194.653 129.824C194.11 129.252 193.56 128.695 193.003 128.152C192.445 127.595 191.91 127.096 191.397 126.656L193.685 124.676C194.213 125.101 194.777 125.607 195.379 126.194C195.98 126.766 196.552 127.345 197.095 127.932C197.652 128.519 198.114 129.039 198.481 129.494L196.127 131.518ZM216.748 130H212.592L217.991 114H223.139L228.538 130H224.381L220.623 118.031H220.498L216.748 130ZM216.194 123.703H224.881V126.641H216.194V123.703ZM233.687 114V130H229.82V114H233.687ZM248.761 112.774C248.702 113.053 248.636 113.361 248.563 113.698C248.489 114.021 248.423 114.321 248.365 114.6C248.306 114.923 248.233 115.289 248.145 115.7C248.057 116.096 247.969 116.499 247.881 116.91C247.807 117.306 247.727 117.695 247.639 118.076C247.492 118.707 247.309 119.44 247.089 120.276C246.869 121.112 246.612 122.014 246.319 122.982C246.025 123.935 245.695 124.896 245.329 125.864C244.962 126.832 244.573 127.778 244.163 128.702C243.752 129.611 243.312 130.433 242.843 131.166L239.983 130.022C240.496 129.333 240.973 128.563 241.413 127.712C241.867 126.847 242.278 125.967 242.645 125.072C243.011 124.163 243.334 123.268 243.613 122.388C243.906 121.493 244.155 120.665 244.361 119.902C244.581 119.139 244.749 118.487 244.867 117.944C245.072 116.947 245.233 115.986 245.351 115.062C245.468 114.138 245.512 113.265 245.483 112.444L248.761 112.774ZM256.329 114.996C256.681 115.48 257.04 116.074 257.407 116.778C257.788 117.467 258.162 118.201 258.529 118.978C258.895 119.755 259.225 120.503 259.519 121.222C259.812 121.941 260.039 122.564 260.201 123.092L257.407 124.368C257.275 123.752 257.077 123.07 256.813 122.322C256.563 121.574 256.27 120.819 255.933 120.056C255.595 119.279 255.236 118.545 254.855 117.856C254.488 117.167 254.107 116.587 253.711 116.118L256.329 114.996ZM239.829 117.284C240.225 117.313 240.613 117.328 240.995 117.328C241.391 117.313 241.787 117.299 242.183 117.284C242.549 117.269 242.989 117.247 243.503 117.218C244.016 117.174 244.559 117.13 245.131 117.086C245.717 117.042 246.304 116.998 246.891 116.954C247.477 116.895 248.02 116.851 248.519 116.822C249.017 116.793 249.428 116.778 249.751 116.778C250.543 116.778 251.232 116.91 251.819 117.174C252.405 117.423 252.867 117.856 253.205 118.472C253.557 119.088 253.733 119.924 253.733 120.98C253.733 121.845 253.696 122.784 253.623 123.796C253.549 124.808 253.417 125.776 253.227 126.7C253.051 127.624 252.801 128.409 252.479 129.054C252.127 129.817 251.643 130.345 251.027 130.638C250.425 130.931 249.707 131.078 248.871 131.078C248.46 131.078 248.013 131.041 247.529 130.968C247.045 130.909 246.612 130.843 246.231 130.77L245.769 127.866C246.047 127.939 246.355 128.013 246.693 128.086C247.045 128.159 247.375 128.218 247.683 128.262C248.005 128.306 248.262 128.328 248.453 128.328C248.819 128.328 249.142 128.262 249.421 128.13C249.699 127.983 249.927 127.734 250.103 127.382C250.308 126.957 250.477 126.407 250.609 125.732C250.741 125.057 250.836 124.331 250.895 123.554C250.968 122.762 251.005 122.007 251.005 121.288C251.005 120.701 250.917 120.269 250.741 119.99C250.579 119.711 250.337 119.528 250.015 119.44C249.707 119.337 249.325 119.286 248.871 119.286C248.533 119.286 248.079 119.315 247.507 119.374C246.935 119.418 246.319 119.477 245.659 119.55C245.013 119.609 244.412 119.675 243.855 119.748C243.297 119.821 242.865 119.873 242.557 119.902C242.234 119.961 241.823 120.027 241.325 120.1C240.841 120.159 240.43 120.217 240.093 120.276L239.829 117.284ZM255.933 111.938C256.123 112.202 256.321 112.517 256.527 112.884C256.747 113.251 256.959 113.617 257.165 113.984C257.37 114.351 257.546 114.673 257.693 114.952L255.911 115.722C255.764 115.414 255.595 115.077 255.405 114.71C255.214 114.343 255.016 113.977 254.811 113.61C254.605 113.243 254.4 112.928 254.195 112.664L255.933 111.938ZM258.551 110.948C258.741 111.227 258.947 111.549 259.167 111.916C259.387 112.283 259.599 112.649 259.805 113.016C260.025 113.383 260.193 113.691 260.311 113.94L258.573 114.688C258.338 114.233 258.059 113.72 257.737 113.148C257.414 112.561 257.099 112.063 256.791 111.652L258.551 110.948ZM261.521 113.962H281.145V116.448H261.521V113.962ZM267.461 121.904H277.009V124.104H267.461V121.904ZM265.503 118.186H276.613V120.496H268.099V131.958H265.503V118.186ZM276.085 118.186H278.681V129.12C278.681 129.765 278.6 130.279 278.439 130.66C278.292 131.041 277.991 131.335 277.537 131.54C277.097 131.745 276.554 131.87 275.909 131.914C275.263 131.958 274.493 131.98 273.599 131.98C273.555 131.613 273.452 131.181 273.291 130.682C273.144 130.198 272.983 129.78 272.807 129.428C273.188 129.443 273.569 129.457 273.951 129.472C274.332 129.487 274.669 129.494 274.963 129.494C275.271 129.494 275.483 129.494 275.601 129.494C275.791 129.479 275.916 129.443 275.975 129.384C276.048 129.325 276.085 129.223 276.085 129.076V118.186ZM268.341 111.3L271.069 111.916C270.555 113.559 269.91 115.194 269.133 116.822C268.37 118.435 267.446 119.939 266.361 121.332C265.29 122.725 264.036 123.921 262.599 124.918C262.467 124.727 262.291 124.507 262.071 124.258C261.865 123.994 261.653 123.745 261.433 123.51C261.227 123.261 261.037 123.055 260.861 122.894C261.829 122.249 262.709 121.486 263.501 120.606C264.307 119.726 265.019 118.773 265.635 117.746C266.265 116.705 266.801 115.641 267.241 114.556C267.695 113.456 268.062 112.371 268.341 111.3ZM267.461 125.534H277.009V127.734H267.461V125.534ZM282.839 117.856H293.377V120.298H282.839V117.856ZM294.455 113.984H297.007V126.348H294.455V113.984ZM287.041 113.478H289.615V131.936H287.041V113.478ZM299.669 111.718H302.287V128.746C302.287 129.523 302.191 130.11 302.001 130.506C301.825 130.917 301.509 131.232 301.055 131.452C300.6 131.657 300.006 131.789 299.273 131.848C298.539 131.921 297.667 131.958 296.655 131.958C296.625 131.709 296.559 131.415 296.457 131.078C296.354 130.755 296.237 130.425 296.105 130.088C295.987 129.765 295.863 129.479 295.731 129.23C296.449 129.259 297.131 129.281 297.777 129.296C298.422 129.296 298.855 129.296 299.075 129.296C299.28 129.281 299.427 129.237 299.515 129.164C299.617 129.076 299.669 128.929 299.669 128.724V111.718ZM291.463 111.388L293.333 113.412C292.409 113.779 291.382 114.109 290.253 114.402C289.123 114.695 287.965 114.952 286.777 115.172C285.603 115.392 284.459 115.583 283.345 115.744C283.301 115.436 283.198 115.084 283.037 114.688C282.875 114.277 282.721 113.94 282.575 113.676C283.367 113.544 284.173 113.397 284.995 113.236C285.816 113.075 286.615 112.899 287.393 112.708C288.185 112.517 288.925 112.312 289.615 112.092C290.304 111.872 290.92 111.637 291.463 111.388ZM287.019 119L288.801 119.792C288.522 120.613 288.192 121.464 287.811 122.344C287.444 123.209 287.041 124.067 286.601 124.918C286.161 125.754 285.691 126.546 285.193 127.294C284.709 128.027 284.203 128.665 283.675 129.208C283.587 128.944 283.462 128.658 283.301 128.35C283.139 128.042 282.971 127.734 282.795 127.426C282.633 127.118 282.479 126.847 282.333 126.612C282.802 126.157 283.264 125.629 283.719 125.028C284.188 124.427 284.628 123.789 285.039 123.114C285.464 122.425 285.845 121.728 286.183 121.024C286.52 120.32 286.799 119.645 287.019 119ZM289.241 121.222C289.446 121.369 289.747 121.603 290.143 121.926C290.539 122.234 290.964 122.571 291.419 122.938C291.873 123.305 292.284 123.649 292.651 123.972C293.032 124.28 293.303 124.5 293.465 124.632L291.947 126.92C291.712 126.612 291.419 126.267 291.067 125.886C290.715 125.49 290.341 125.087 289.945 124.676C289.563 124.265 289.189 123.884 288.823 123.532C288.456 123.165 288.133 122.857 287.855 122.608L289.241 121.222ZM313.595 112.62C313.521 112.899 313.448 113.207 313.375 113.544C313.316 113.867 313.257 114.167 313.199 114.446C313.14 114.769 313.067 115.135 312.979 115.546C312.891 115.942 312.803 116.345 312.715 116.756C312.641 117.152 312.561 117.541 312.473 117.922C312.326 118.553 312.143 119.286 311.923 120.122C311.703 120.958 311.446 121.86 311.153 122.828C310.859 123.781 310.529 124.742 310.163 125.71C309.796 126.678 309.407 127.624 308.997 128.548C308.586 129.457 308.146 130.279 307.677 131.012L304.817 129.868C305.33 129.179 305.807 128.409 306.247 127.558C306.701 126.693 307.112 125.805 307.479 124.896C307.845 123.987 308.168 123.092 308.447 122.212C308.74 121.332 308.989 120.511 309.195 119.748C309.4 118.985 309.561 118.333 309.679 117.79C309.884 116.793 310.045 115.832 310.163 114.908C310.28 113.984 310.331 113.111 310.317 112.29L313.595 112.62ZM321.163 114.688C321.515 115.157 321.874 115.751 322.241 116.47C322.622 117.174 322.989 117.922 323.341 118.714C323.707 119.506 324.037 120.269 324.331 121.002C324.639 121.735 324.873 122.359 325.035 122.872L322.241 124.17C322.094 123.554 321.889 122.872 321.625 122.124C321.375 121.361 321.082 120.591 320.745 119.814C320.422 119.022 320.07 118.274 319.689 117.57C319.322 116.866 318.941 116.279 318.545 115.81L321.163 114.688ZM304.663 117.13C305.059 117.159 305.447 117.174 305.829 117.174C306.21 117.159 306.606 117.145 307.017 117.13C307.369 117.115 307.801 117.093 308.315 117.064C308.843 117.02 309.393 116.976 309.965 116.932C310.551 116.888 311.138 116.844 311.725 116.8C312.311 116.741 312.854 116.697 313.353 116.668C313.851 116.639 314.262 116.624 314.585 116.624C315.362 116.624 316.044 116.756 316.631 117.02C317.232 117.269 317.701 117.702 318.039 118.318C318.391 118.934 318.567 119.77 318.567 120.826C318.567 121.691 318.523 122.63 318.435 123.642C318.361 124.654 318.237 125.622 318.061 126.546C317.885 127.47 317.635 128.255 317.313 128.9C316.961 129.663 316.477 130.191 315.861 130.484C315.259 130.777 314.541 130.924 313.705 130.924C313.279 130.924 312.825 130.887 312.341 130.814C311.871 130.755 311.446 130.689 311.065 130.616L310.581 127.712C310.874 127.785 311.189 127.859 311.527 127.932C311.879 128.005 312.209 128.064 312.517 128.108C312.839 128.152 313.096 128.174 313.287 128.174C313.653 128.174 313.976 128.108 314.255 127.976C314.533 127.829 314.761 127.58 314.937 127.228C315.142 126.803 315.303 126.253 315.421 125.578C315.553 124.903 315.648 124.177 315.707 123.4C315.78 122.608 315.817 121.853 315.817 121.134C315.817 120.547 315.736 120.115 315.575 119.836C315.413 119.557 315.171 119.374 314.849 119.286C314.541 119.183 314.152 119.132 313.683 119.132C313.36 119.132 312.905 119.161 312.319 119.22C311.747 119.264 311.138 119.323 310.493 119.396C309.847 119.455 309.239 119.521 308.667 119.594C308.109 119.667 307.677 119.719 307.369 119.748C307.061 119.807 306.657 119.873 306.159 119.946C305.675 120.005 305.264 120.063 304.927 120.122L304.663 117.13ZM334.319 124.346C334.245 123.759 334.289 123.246 334.451 122.806C334.627 122.366 334.869 121.97 335.177 121.618C335.499 121.266 335.851 120.943 336.233 120.65C336.629 120.357 336.995 120.071 337.333 119.792C337.685 119.513 337.971 119.227 338.191 118.934C338.411 118.641 338.521 118.318 338.521 117.966C338.521 117.526 338.411 117.152 338.191 116.844C337.971 116.536 337.648 116.301 337.223 116.14C336.812 115.979 336.313 115.898 335.727 115.898C335.052 115.898 334.436 116.045 333.879 116.338C333.321 116.631 332.771 117.064 332.229 117.636L330.425 115.964C331.129 115.157 331.957 114.512 332.911 114.028C333.879 113.529 334.942 113.28 336.101 113.28C337.171 113.28 338.117 113.441 338.939 113.764C339.775 114.087 340.427 114.578 340.897 115.238C341.381 115.883 341.623 116.697 341.623 117.68C341.623 118.223 341.505 118.699 341.271 119.11C341.051 119.506 340.757 119.865 340.391 120.188C340.039 120.496 339.665 120.797 339.269 121.09C338.873 121.369 338.506 121.662 338.169 121.97C337.831 122.278 337.567 122.623 337.377 123.004C337.186 123.385 337.113 123.833 337.157 124.346H334.319ZM335.749 130.198C335.191 130.198 334.729 130.015 334.363 129.648C333.996 129.281 333.813 128.819 333.813 128.262C333.813 127.69 333.996 127.221 334.363 126.854C334.729 126.487 335.191 126.304 335.749 126.304C336.306 126.304 336.768 126.487 337.135 126.854C337.501 127.221 337.685 127.69 337.685 128.262C337.685 128.819 337.501 129.281 337.135 129.648C336.768 130.015 336.306 130.198 335.749 130.198ZM347.761 113.962H367.385V116.448H347.761V113.962ZM353.701 121.904H363.249V124.104H353.701V121.904ZM351.743 118.186H362.853V120.496H354.339V131.958H351.743V118.186ZM362.325 118.186H364.921V129.12C364.921 129.765 364.84 130.279 364.679 130.66C364.532 131.041 364.231 131.335 363.777 131.54C363.337 131.745 362.794 131.87 362.149 131.914C361.503 131.958 360.733 131.98 359.839 131.98C359.795 131.613 359.692 131.181 359.531 130.682C359.384 130.198 359.223 129.78 359.047 129.428C359.428 129.443 359.809 129.457 360.191 129.472C360.572 129.487 360.909 129.494 361.203 129.494C361.511 129.494 361.723 129.494 361.841 129.494C362.031 129.479 362.156 129.443 362.215 129.384C362.288 129.325 362.325 129.223 362.325 129.076V118.186ZM354.581 111.3L357.309 111.916C356.795 113.559 356.15 115.194 355.373 116.822C354.61 118.435 353.686 119.939 352.601 121.332C351.53 122.725 350.276 123.921 348.839 124.918C348.707 124.727 348.531 124.507 348.311 124.258C348.105 123.994 347.893 123.745 347.673 123.51C347.467 123.261 347.277 123.055 347.101 122.894C348.069 122.249 348.949 121.486 349.741 120.606C350.547 119.726 351.259 118.773 351.875 117.746C352.505 116.705 353.041 115.641 353.481 114.556C353.935 113.456 354.302 112.371 354.581 111.3ZM353.701 125.534H363.249V127.734H353.701V125.534ZM377.703 115.568H380.365V123.488H377.703V115.568ZM372.357 116.712H385.975V118.736H372.357V116.712ZM371.433 119.638H387.053V121.574H371.433V119.638ZM373.281 129.318H384.963V131.364H373.281V129.318ZM369.321 122.564H389.011V124.698H369.321V122.564ZM372.357 125.556H386.151V131.936H383.489V127.624H374.887V131.98H372.357V125.556ZM377.681 111.3H380.409V114.49H377.681V111.3ZM369.805 113.192H388.483V117.724H385.777V115.502H372.401V117.724H369.805V113.192ZM399.835 112.62C399.761 112.899 399.688 113.207 399.615 113.544C399.556 113.867 399.497 114.167 399.439 114.446C399.38 114.769 399.307 115.135 399.219 115.546C399.131 115.942 399.043 116.345 398.955 116.756C398.881 117.152 398.801 117.541 398.713 117.922C398.566 118.553 398.383 119.286 398.163 120.122C397.943 120.958 397.686 121.86 397.393 122.828C397.099 123.781 396.769 124.742 396.403 125.71C396.036 126.678 395.647 127.624 395.237 128.548C394.826 129.457 394.386 130.279 393.917 131.012L391.057 129.868C391.57 129.179 392.047 128.409 392.487 127.558C392.941 126.693 393.352 125.805 393.719 124.896C394.085 123.987 394.408 123.092 394.687 122.212C394.98 121.332 395.229 120.511 395.435 119.748C395.64 118.985 395.801 118.333 395.919 117.79C396.124 116.793 396.285 115.832 396.403 114.908C396.52 113.984 396.571 113.111 396.557 112.29L399.835 112.62ZM407.403 114.688C407.755 115.157 408.114 115.751 408.481 116.47C408.862 117.174 409.229 117.922 409.581 118.714C409.947 119.506 410.277 120.269 410.571 121.002C410.879 121.735 411.113 122.359 411.275 122.872L408.481 124.17C408.334 123.554 408.129 122.872 407.865 122.124C407.615 121.361 407.322 120.591 406.985 119.814C406.662 119.022 406.31 118.274 405.929 117.57C405.562 116.866 405.181 116.279 404.785 115.81L407.403 114.688ZM390.903 117.13C391.299 117.159 391.687 117.174 392.069 117.174C392.45 117.159 392.846 117.145 393.257 117.13C393.609 117.115 394.041 117.093 394.555 117.064C395.083 117.02 395.633 116.976 396.205 116.932C396.791 116.888 397.378 116.844 397.965 116.8C398.551 116.741 399.094 116.697 399.593 116.668C400.091 116.639 400.502 116.624 400.825 116.624C401.602 116.624 402.284 116.756 402.871 117.02C403.472 117.269 403.941 117.702 404.279 118.318C404.631 118.934 404.807 119.77 404.807 120.826C404.807 121.691 404.763 122.63 404.675 123.642C404.601 124.654 404.477 125.622 404.301 126.546C404.125 127.47 403.875 128.255 403.553 128.9C403.201 129.663 402.717 130.191 402.101 130.484C401.499 130.777 400.781 130.924 399.945 130.924C399.519 130.924 399.065 130.887 398.581 130.814C398.111 130.755 397.686 130.689 397.305 130.616L396.821 127.712C397.114 127.785 397.429 127.859 397.767 127.932C398.119 128.005 398.449 128.064 398.757 128.108C399.079 128.152 399.336 128.174 399.527 128.174C399.893 128.174 400.216 128.108 400.495 127.976C400.773 127.829 401.001 127.58 401.177 127.228C401.382 126.803 401.543 126.253 401.661 125.578C401.793 124.903 401.888 124.177 401.947 123.4C402.02 122.608 402.057 121.853 402.057 121.134C402.057 120.547 401.976 120.115 401.815 119.836C401.653 119.557 401.411 119.374 401.089 119.286C400.781 119.183 400.392 119.132 399.923 119.132C399.6 119.132 399.145 119.161 398.559 119.22C397.987 119.264 397.378 119.323 396.733 119.396C396.087 119.455 395.479 119.521 394.907 119.594C394.349 119.667 393.917 119.719 393.609 119.748C393.301 119.807 392.897 119.873 392.399 119.946C391.915 120.005 391.504 120.063 391.167 120.122L390.903 117.13ZM420.559 124.346C420.485 123.759 420.529 123.246 420.691 122.806C420.867 122.366 421.109 121.97 421.417 121.618C421.739 121.266 422.091 120.943 422.473 120.65C422.869 120.357 423.235 120.071 423.573 119.792C423.925 119.513 424.211 119.227 424.431 118.934C424.651 118.641 424.761 118.318 424.761 117.966C424.761 117.526 424.651 117.152 424.431 116.844C424.211 116.536 423.888 116.301 423.463 116.14C423.052 115.979 422.553 115.898 421.967 115.898C421.292 115.898 420.676 116.045 420.119 116.338C419.561 116.631 419.011 117.064 418.469 117.636L416.665 115.964C417.369 115.157 418.197 114.512 419.151 114.028C420.119 113.529 421.182 113.28 422.341 113.28C423.411 113.28 424.357 113.441 425.179 113.764C426.015 114.087 426.667 114.578 427.137 115.238C427.621 115.883 427.863 116.697 427.863 117.68C427.863 118.223 427.745 118.699 427.511 119.11C427.291 119.506 426.997 119.865 426.631 120.188C426.279 120.496 425.905 120.797 425.509 121.09C425.113 121.369 424.746 121.662 424.409 121.97C424.071 122.278 423.807 122.623 423.617 123.004C423.426 123.385 423.353 123.833 423.397 124.346H420.559ZM421.989 130.198C421.431 130.198 420.969 130.015 420.603 129.648C420.236 129.281 420.053 128.819 420.053 128.262C420.053 127.69 420.236 127.221 420.603 126.854C420.969 126.487 421.431 126.304 421.989 126.304C422.546 126.304 423.008 126.487 423.375 126.854C423.741 127.221 423.925 127.69 423.925 128.262C423.925 128.819 423.741 129.281 423.375 129.648C423.008 130.015 422.546 130.198 421.989 130.198Z" fill="white"/>
</svg>
